<?xml version="1.0" encoding="UTF-8"?>
<svg id="Layer_2" data-name="Layer 2" xmlns="http://www.w3.org/2000/svg" viewBox="0 0 451.12 388.87">
  <defs>
    <style>
      .cls-1 {
        letter-spacing: 0em;
      }

      .cls-2 {
        fill: #e2915a;
      }

      .cls-3 {
        font-size: 67.5px;
        stroke-width: 2.21px;
      }

      .cls-3, .cls-4, .cls-5 {
        fill: #013835;
      }

      .cls-3, .cls-5 {
        font-family: Maginia-Regular, Maginia;
        stroke: #013835;
        stroke-miterlimit: 10;
      }

      .cls-6 {
        letter-spacing: -.01em;
      }

      .cls-5 {
        font-size: 89.46px;
        stroke-width: 3.63px;
      }

      .cls-7 {
        letter-spacing: -.01em;
      }

      .cls-8 {
        letter-spacing: -.05em;
      }

      .cls-9 {
        letter-spacing: 0em;
      }

      .cls-10 {
        letter-spacing: 0em;
      }
    </style>
  </defs>
  <g id="Layer_1-2" data-name="Layer 1">
    <g>
      <text class="cls-5" transform="translate(1.81 259.23)"><tspan x="0" y="0">Bloom</tspan><tspan class="cls-6" x="247.28" y="0">f</tspan><tspan x="274.03" y="0">o</tspan><tspan class="cls-7" x="325.02" y="0">r</tspan><tspan class="cls-1" x="356.87" y="0">ge</tspan></text>
      <text class="cls-3" transform="translate(81.14 326.94)"><tspan class="cls-8" x="0" y="0">V</tspan><tspan x="38.95" y="0">entu</tspan><tspan class="cls-9" x="162.08" y="0">r</tspan><tspan class="cls-10" x="186.38" y="0">es</tspan></text>
      <g>
        <path class="cls-4" d="m216.85,0c-49.99,0-90.49,40.52-90.49,90.47s40.5,90.52,90.49,90.52,90.52-40.52,90.52-90.52S266.85,0,216.85,0Zm-35.78,107.78c.61,1.68,1.37,3.83,2.21,6.3,1.02,2.84,1.55,4.62,2.03,6.22.46,1.47.86,2.84,1.52,4.72,1.88,5.48,3.76,9.52,5.26,12.77,1.57,3.4,3.28,6.83,5.08,10.16-.05-.03-.13-.08-.15-.1-4.11-2.41-6.75-5.43-8.68-7.67-.58-.66-1.14-1.24-1.6-1.73-5.56-5.69-9.83-10.31-12.64-13.38l-.51-.51c-3.48-3.81-5.71-6.27-7.36-8.12-2.67-3.02-3.78-4.27-6.3-6.47-3.4-3-8.56-7.03-13.71-9.32-1.29-.56-2.51-1.02-3.66-1.4,3.68.08,8.33.36,13.3,1.07,8.66,1.29,17.16,3.81,25.21,7.46Zm20.57,42.3c-2.54-4.39-4.9-8.91-7.03-13.48-.18-.38-.38-.79-.56-1.22-.03-.08-.08-.18-.1-.23l-4.01-9.65c-.13-.46-.3-.91-.48-1.4-.63-1.85-1.04-3.17-1.47-4.62-.51-1.63-1.04-3.43-2.06-6.32-.43-1.37-.89-2.64-1.32-3.78l.08.03-1.14-3.12c-1.75-4.67-3.55-9.37-5.41-13.96-3.86-9.45-5.94-14.62-8.86-19.02-3.28-4.9-6.86-8.2-9.62-10.44,4.85,1.98,12.62,5.92,20.62,11.81,9.72,7.06,16.61,14.65,21.1,20.44l-.03.05.48.74c2.23,3.71,4.32,7.29,6.37,10.97,2.95,5.33,4.98,8.96,6.42,12.19,2.16,5.61,3.35,10.28,4.11,13.28.25.94.46,1.88.66,2.82.25,1.55.48,3.12.74,4.8.58,3.96.96,8,1.19,12.01-2.89.56-5.81.74-8.79.51-4.44-.28-8.15-1.32-10.89-2.36v-.03Zm14.83-83.86c1.5-9.04,1.19-19.04,1.02-25.09-.08-1.93-.18-3.94-.28-5.92,4.24,6.98,7.44,14.17,9.5,21.53,1.57,5.56,2.87,12.06,3.58,17.88l1.78,14.22v.03c-2.54,3.83-4.93,7.77-7.16,11.78-2.97,5.28-5.69,10.82-8.07,16.4-2.06-5.26-4.93-11.3-8.96-17.57-.79-1.24-1.8-2.74-3.05-4.44,6.12-9.27,10.03-18.94,11.65-28.82Zm16.2,27.57l2.08-2.77c7.06-9.42,15.84-16.83,26.08-21.99,3.5-1.78,7.21-3.28,10.99-4.47-4.52,3.99-8.25,8.46-11.15,13.38-3.33,5.64-5.48,11.65-7.19,16.5-1.17,3.28-2.21,6.58-3.1,9.88l-.61-.13c-.48,2.11-1.02,4.21-1.55,6.32-.63,2.51-1.29,5.05-2.03,7.52-2.64,9.24-3.91,13.48-6.02,17.42-2.44,4.6-5.87,8.73-10.11,12.39-.74.66-1.52,1.29-2.34,1.9l.33.43c-.05.03-.08.03-.15.08-1.07.28-2.16.58-3.28.79-.41-5.36-1.24-10.71-2.44-15.97-.61-3.83-1.42-7.52-2.84-11.81-.33-.94-.66-1.85-1.04-2.74h.03c2.62-6.35,5.64-12.54,8.99-18.54,1.63-2.95,3.38-5.89,5.26-8.76l.08.56Zm2.01,53.6c3.25-3.2,5.89-6.78,7.97-10.61,2.34-4.34,3.73-9.19,6.25-17.95,1.09-3.91,2.16-7.87,3.1-11.78,7.64-2.74,15.67-4.72,23.69-5.89,3.55-.48,7.11-.79,10.69-.96-4.14,1.88-7.06,4.39-10.97,7.9-6.6,5.97-9.9,8.99-14.96,14.42-4.93,5.28-7.03,8-8.56,9.98-1.63,2.06-2.69,3.43-5.71,6.25-4.16,3.86-7.85,6.65-11.5,8.66Z"/>
        <path class="cls-2" d="m221.32,151.96c-2.89.56-5.81.74-8.79.51-4.44-.28-8.15-1.32-10.89-2.36v-.03c-2.54-4.39-4.9-8.91-7.03-13.48-.18-.38-.38-.79-.56-1.22-.03-.08-.08-.18-.1-.23l-4.01-9.65c-.13-.46-.3-.91-.48-1.4-.63-1.85-1.04-3.17-1.47-4.62-.51-1.63-1.04-3.43-2.06-6.32-.43-1.37-.89-2.64-1.32-3.78l.08.03-1.14-3.12c-1.75-4.67-3.55-9.37-5.41-13.96-3.86-9.45-5.94-14.62-8.86-19.02-3.28-4.9-6.86-8.2-9.62-10.44,4.85,1.98,12.62,5.92,20.62,11.81,9.72,7.06,16.61,14.65,21.1,20.44l-.03.05.48.74c2.23,3.71,4.32,7.29,6.37,10.97,2.95,5.33,4.98,8.96,6.42,12.19,2.16,5.61,3.35,10.28,4.11,13.28.25.94.46,1.88.66,2.82.25,1.55.48,3.12.74,4.8.58,3.96.96,8,1.19,12.01Z"/>
        <g>
          <path class="cls-4" d="m275.3,98.41c-7.36,1.04-14.73,2.74-21.81,5.18.76-2.77,1.63-5.48,2.59-8.2,1.68-4.75,3.78-10.64,7.01-16.05,3.76-6.35,9.01-11.98,15.59-16.68l5.51-3.94-6.63,1.42c-6.25,1.4-12.31,3.53-17.98,6.37-9.65,4.87-18.05,11.63-25.01,20.16l-1.52-12.39c-.74-5.97-2.06-12.62-3.66-18.28-2.59-9.27-6.91-18.31-12.85-26.89l-3.05-4.34.51,5.26c.33,3.73.58,7.49.69,11.2.18,5.89.48,15.79-.96,24.53-1.5,9.19-5.13,18.23-10.77,26.91-.25.41-.48.84-.81,1.22-.05.18-.2.33-.3.51l-.48.71-.03.05.48.74c2.23,3.71,4.32,7.29,6.37,10.97,2.95,5.33,4.98,8.96,6.42,12.19.84,1.75,1.5,3.38,2.11,5.13,1.32,3.94,2.08,7.41,2.67,10.97.25,1.55.48,3.12.74,4.8.58,3.96.96,8,1.19,12.01.03.3.05.63.05.94l.05.48.03,1.04,1.52-.23c.63-.1,1.27-.23,1.88-.36,1.35-.25,2.62-.56,3.88-.94,6.5-1.98,12.29-5.61,19.35-12.16,3.2-2.95,4.34-4.44,5.99-6.53,1.5-1.96,3.58-4.65,8.43-9.83,4.93-5.33,8.25-8.33,14.78-14.24,4.09-3.68,6.91-6.07,11.15-7.79,2.92-1.22,6.07-1.9,9.29-2.13v-2.77c-7.46-.38-15.01-.08-22.42.96Zm-23.41,34.07c-1.63,2.06-2.69,3.43-5.71,6.25-4.16,3.86-7.85,6.65-11.5,8.66-.03.05-.03.08-.08.05-1.35.76-2.72,1.37-4.09,1.9-.46.2-.91.36-1.37.48h-.03c-.36.15-.66.25-1.02.36h-.03c-.05.03-.08.03-.15.08-1.07.28-2.16.58-3.28.79-.18.08-.38.1-.58.15-.2-3.91-.58-7.79-1.19-11.68-.2-1.52-.46-3-.66-4.44-.61-3.83-1.42-7.52-2.84-11.81-.33-.94-.66-1.85-1.04-2.74v-.05c-.23-.51-.43-1.04-.71-1.55v-.05s0-.05-.03-.1l-.03-.03c-.15-.38-.33-.76-.53-1.19v-.03c-.08-.15-.18-.28-.25-.43v-.03c-1.45-3.12-3.4-6.63-6.14-11.55-1.93-3.48-3.91-6.86-5.97-10.28.05-.08.1-.13.15-.2,6.12-9.27,10.03-18.94,11.65-28.82,1.5-9.04,1.19-19.04,1.02-25.09-.08-1.93-.18-3.94-.28-5.92,4.24,6.98,7.44,14.17,9.5,21.53,1.57,5.56,2.87,12.06,3.58,17.88l1.78,14.22v.03l.25,2.13v.03l.03.33v.03l.25,1.85.08.56,2.08-2.77c7.06-9.42,15.84-16.83,26.08-21.99,3.5-1.78,7.21-3.28,10.99-4.47-4.52,3.99-8.25,8.46-11.15,13.38-3.33,5.64-5.48,11.65-7.19,16.5-1.17,3.28-2.21,6.58-3.1,9.88-.13.36-.18.74-.28,1.09l-.71,2.56.08-.03.94-.33,1.5-.56s.03,0,.08-.03c7.64-2.74,15.67-4.72,23.69-5.89,3.55-.48,7.11-.79,10.69-.96-4.14,1.88-7.06,4.39-10.97,7.9-6.6,5.97-9.9,8.99-14.96,14.42-4.93,5.28-7.03,8-8.56,9.98Z"/>
          <path class="cls-2" d="m271.82,64.57c-4.52,3.99-8.25,8.46-11.15,13.38-3.33,5.64-5.48,11.65-7.19,16.5-1.17,3.28-2.21,6.58-3.1,9.88l-.61-.13c-.48,2.11-1.02,4.21-1.55,6.32-.63,2.51-1.29,5.05-2.03,7.52-2.64,9.24-3.91,13.48-6.02,17.42-2.44,4.6-5.87,8.73-10.11,12.39-.74.66-1.52,1.29-2.34,1.9l.33.43c-.05.03-.08.03-.15.08-1.07.28-2.16.58-3.28.79-.41-5.36-1.24-10.71-2.44-15.97-.61-3.83-1.42-7.52-2.84-11.81-.33-.94-.66-1.85-1.04-2.74h.03c2.62-6.35,5.64-12.54,8.99-18.54,1.63-2.95,3.38-5.89,5.26-8.76l.08.56,2.08-2.77c7.06-9.42,15.84-16.83,26.08-21.99,3.5-1.78,7.21-3.28,10.99-4.47Z"/>
        </g>
        <g>
          <path class="cls-4" d="m200.42,150.82c-.3-.56-.63-1.09-.94-1.65,0,0,0-.03-.03-.03-2.44-4.42-4.49-8.4-6.09-11.96-1.57-3.38-3.35-7.26-5.21-12.62-1.4-3.99-1.68-5.48-3.55-10.94-.61-1.9-1.24-3.58-1.8-5.05-.25-.69-.46-1.27-.63-1.83h.05l.76,1.9,6.96,16.86,4.01,9.65c.03.05.08.15.1.23l5.74,13.94.63,1.5Z"/>
          <path class="cls-4" d="m201.64,150.08v.03l-1.22.71-.28.15-.94.53c-.25-.41-.48-.84-.74-1.29-.41-.71-.84-1.5-1.29-2.26-1.8-3.33-3.5-6.75-5.08-10.16-1.5-3.25-3.38-7.29-5.26-12.77-.66-1.88-1.07-3.25-1.52-4.72-.48-1.6-1.02-3.38-2.03-6.22-.84-2.46-1.6-4.62-2.21-6.3-.28-.71-.51-1.29-.71-1.8l.08-.05,1.22-.48h.08l1.22-.48c.43,1.12.99,2.62,1.65,4.42.43,1.14.89,2.41,1.32,3.78,1.02,2.89,1.55,4.7,2.06,6.32.43,1.45.84,2.77,1.47,4.62.18.48.36.94.48,1.4,1.42,3.88,2.82,7.03,4.01,9.65.03.05.08.15.1.23.18.43.38.84.56,1.22,2.13,4.57,4.49,9.09,7.03,13.48Z"/>
        </g>
      </g>
    </g>
  </g>
</svg>