<?xml version="1.0" encoding="UTF-8"?>
<svg id="Layer_2" data-name="Layer 2" xmlns="http://www.w3.org/2000/svg" viewBox="0 0 489.5 164.83">
  <defs>
    <style>
      .cls-1 {
        fill: #e2915a;
      }

      .cls-2 {
        letter-spacing: -.01em;
      }

      .cls-3 {
        letter-spacing: -.01em;
      }

      .cls-4 {
        fill: #fffd74;
      }

      .cls-5 {
        letter-spacing: .8em;
      }

      .cls-6, .cls-7, .cls-8 {
        fill: #013835;
      }

      .cls-9 {
        letter-spacing: .84em;
      }

      .cls-7 {
        font-size: 29.73px;
        stroke-width: 1.01px;
      }

      .cls-7, .cls-8 {
        font-family: Maginia-Regular, Maginia;
        stroke: #013835;
        stroke-miterlimit: 10;
      }

      .cls-8 {
        font-size: 57.54px;
        stroke-width: 2.04px;
      }

      .cls-10 {
        letter-spacing: .85em;
      }
    </style>
  </defs>
  <g id="Layer_1-2" data-name="Layer 1">
    <g>
      <g>
        <path class="cls-6" d="m82.41,0C36.88,0,0,36.91,0,82.39s36.88,82.44,82.41,82.44,82.44-36.91,82.44-82.44S127.94,0,82.41,0Zm-32.58,98.16c.55,1.53,1.25,3.49,2.01,5.73.93,2.59,1.41,4.21,1.85,5.67.42,1.34.79,2.59,1.39,4.3,1.71,4.99,3.42,8.67,4.79,11.63,1.43,3.1,2.98,6.22,4.62,9.25-.05-.02-.12-.07-.14-.09-3.75-2.2-6.15-4.95-7.91-6.98-.53-.6-1.04-1.13-1.46-1.57-5.06-5.18-8.95-9.39-11.52-12.19l-.46-.46c-3.17-3.47-5.2-5.71-6.71-7.4-2.43-2.75-3.45-3.88-5.73-5.9-3.1-2.73-7.79-6.41-12.49-8.49-1.18-.51-2.29-.93-3.33-1.27,3.35.07,7.58.32,12.12.97,7.89,1.18,15.63,3.47,22.96,6.8Zm18.73,38.52c-2.31-4-4.46-8.12-6.41-12.28-.16-.35-.35-.72-.51-1.11-.02-.07-.07-.16-.09-.21l-3.65-8.79c-.12-.42-.28-.83-.44-1.27-.58-1.69-.95-2.89-1.34-4.21-.46-1.48-.95-3.12-1.87-5.76-.39-1.25-.81-2.4-1.2-3.45l.07.02-1.04-2.84c-1.6-4.25-3.24-8.53-4.93-12.72-3.51-8.6-5.41-13.32-8.07-17.32-2.98-4.46-6.24-7.47-8.76-9.5,4.42,1.8,11.49,5.39,18.78,10.75,8.86,6.43,15.12,13.34,19.22,18.61l-.02.05.44.67c2.03,3.38,3.93,6.64,5.8,9.99,2.68,4.86,4.53,8.16,5.85,11.1,1.97,5.11,3.05,9.37,3.75,12.09.23.86.42,1.71.6,2.57.23,1.41.44,2.84.67,4.37.53,3.61.88,7.28,1.09,10.94-2.64.51-5.3.67-8,.46-4.05-.25-7.42-1.2-9.92-2.15v-.02Zm13.5-76.38c1.36-8.23,1.09-17.34.93-22.85-.07-1.76-.16-3.58-.25-5.39,3.86,6.36,6.78,12.9,8.65,19.61,1.43,5.06,2.61,10.98,3.26,16.28l1.62,12.95v.02c-2.31,3.49-4.49,7.08-6.52,10.73-2.71,4.81-5.18,9.85-7.35,14.94-1.87-4.79-4.49-10.29-8.16-16-.72-1.13-1.64-2.5-2.77-4.05,5.57-8.44,9.13-17.25,10.61-26.25Zm14.75,25.11l1.9-2.52c6.43-8.58,14.43-15.33,23.75-20.03,3.19-1.62,6.57-2.98,10.01-4.07-4.12,3.63-7.52,7.7-10.15,12.19-3.03,5.13-4.99,10.61-6.54,15.03-1.06,2.98-2.01,5.99-2.82,9l-.56-.12c-.44,1.92-.92,3.84-1.41,5.76-.58,2.29-1.18,4.6-1.85,6.84-2.4,8.42-3.56,12.28-5.48,15.86-2.22,4.19-5.34,7.95-9.2,11.28-.67.6-1.39,1.18-2.13,1.73l.3.39s-.07.02-.14.07c-.97.25-1.97.53-2.98.72-.37-4.88-1.13-9.76-2.22-14.54-.55-3.49-1.29-6.84-2.59-10.75-.3-.86-.6-1.69-.95-2.5h.02c2.38-5.78,5.13-11.42,8.19-16.88,1.48-2.68,3.08-5.36,4.79-7.98l.07.51Zm1.83,48.81c2.96-2.91,5.36-6.17,7.26-9.67,2.13-3.95,3.4-8.37,5.69-16.35.99-3.56,1.97-7.17,2.82-10.73,6.96-2.5,14.27-4.3,21.57-5.36,3.24-.44,6.47-.72,9.74-.88-3.77,1.71-6.43,4-9.99,7.19-6.01,5.43-9.02,8.19-13.62,13.13-4.49,4.81-6.41,7.28-7.79,9.09-1.48,1.87-2.45,3.12-5.2,5.69-3.79,3.51-7.15,6.06-10.48,7.89Z"/>
        <path class="cls-1" d="m86.48,138.4c-2.64.51-5.3.67-8,.46-4.05-.25-7.42-1.2-9.92-2.15v-.02c-2.31-4-4.46-8.12-6.41-12.28-.16-.35-.35-.72-.51-1.11-.02-.07-.07-.16-.09-.21l-3.65-8.79c-.12-.42-.28-.83-.44-1.27-.58-1.69-.95-2.89-1.34-4.21-.46-1.48-.95-3.12-1.87-5.76-.39-1.25-.81-2.4-1.2-3.45l.07.02-1.04-2.84c-1.6-4.25-3.24-8.53-4.93-12.72-3.51-8.6-5.41-13.32-8.07-17.32-2.98-4.46-6.24-7.47-8.76-9.5,4.42,1.8,11.49,5.39,18.78,10.75,8.86,6.43,15.12,13.34,19.22,18.61l-.02.05.44.67c2.03,3.38,3.93,6.64,5.8,9.99,2.68,4.86,4.53,8.16,5.85,11.1,1.97,5.11,3.05,9.37,3.75,12.09.23.86.42,1.71.6,2.57.23,1.41.44,2.84.67,4.37.53,3.61.88,7.28,1.09,10.94Z"/>
        <g>
          <path class="cls-6" d="m135.65,89.63c-6.71.95-13.41,2.5-19.86,4.72.69-2.52,1.48-4.99,2.36-7.47,1.53-4.32,3.45-9.69,6.38-14.61,3.42-5.78,8.21-10.91,14.2-15.19l5.02-3.58-6.04,1.29c-5.69,1.27-11.22,3.21-16.37,5.8-8.79,4.44-16.44,10.59-22.78,18.36l-1.39-11.28c-.67-5.43-1.87-11.49-3.33-16.65-2.36-8.44-6.29-16.67-11.7-24.49l-2.77-3.95.46,4.79c.3,3.4.53,6.82.62,10.2.16,5.36.44,14.38-.88,22.34-1.36,8.37-4.67,16.6-9.8,24.51-.23.37-.44.76-.74,1.11-.05.16-.19.3-.28.46l-.44.65-.02.05.44.67c2.03,3.38,3.93,6.64,5.8,9.99,2.68,4.86,4.53,8.16,5.85,11.1.76,1.6,1.36,3.08,1.92,4.67,1.2,3.58,1.9,6.75,2.43,9.99.23,1.41.44,2.84.67,4.37.53,3.61.88,7.28,1.09,10.94.02.28.05.58.05.86l.05.44.02.95,1.39-.21c.58-.09,1.16-.21,1.71-.32,1.23-.23,2.38-.51,3.54-.86,5.92-1.8,11.19-5.11,17.62-11.08,2.91-2.68,3.95-4.05,5.46-5.94,1.36-1.78,3.26-4.23,7.68-8.95,4.49-4.86,7.52-7.58,13.46-12.97,3.72-3.35,6.29-5.53,10.15-7.1,2.66-1.11,5.53-1.73,8.46-1.94v-2.52c-6.8-.35-13.67-.07-20.42.88Zm-21.32,31.03c-1.48,1.87-2.45,3.12-5.2,5.69-3.79,3.51-7.15,6.06-10.48,7.89-.02.05-.02.07-.07.05-1.23.69-2.47,1.25-3.72,1.73-.42.18-.83.32-1.25.44h-.02c-.32.14-.6.23-.93.32h-.02s-.07.02-.14.07c-.97.25-1.97.53-2.98.72-.16.07-.35.09-.53.14-.18-3.56-.53-7.1-1.09-10.64-.19-1.39-.42-2.73-.6-4.05-.55-3.49-1.29-6.84-2.59-10.75-.3-.86-.6-1.69-.95-2.5v-.05c-.21-.46-.39-.95-.65-1.41v-.05s0-.05-.02-.09l-.02-.02c-.14-.35-.3-.69-.49-1.09v-.02c-.07-.14-.16-.25-.23-.39v-.02c-1.32-2.84-3.1-6.04-5.6-10.52-1.76-3.17-3.56-6.24-5.43-9.37.05-.07.09-.12.14-.19,5.57-8.44,9.13-17.25,10.61-26.25,1.36-8.23,1.09-17.34.93-22.85-.07-1.76-.16-3.58-.25-5.39,3.86,6.36,6.78,12.9,8.65,19.61,1.43,5.06,2.61,10.98,3.26,16.28l1.62,12.95v.02l.23,1.94v.02l.02.3v.02l.23,1.69.07.51,1.9-2.52c6.43-8.58,14.43-15.33,23.75-20.03,3.19-1.62,6.57-2.98,10.01-4.07-4.12,3.63-7.52,7.7-10.15,12.19-3.03,5.13-4.99,10.61-6.54,15.03-1.06,2.98-2.01,5.99-2.82,9-.12.32-.16.67-.25.99l-.65,2.34.07-.02.86-.3,1.36-.51s.02,0,.07-.02c6.96-2.5,14.27-4.3,21.57-5.36,3.24-.44,6.47-.72,9.74-.88-3.77,1.71-6.43,4-9.99,7.19-6.01,5.43-9.02,8.19-13.62,13.13-4.49,4.81-6.41,7.28-7.79,9.09Z"/>
          <path class="cls-4" d="m132.48,58.8c-4.12,3.63-7.52,7.7-10.15,12.19-3.03,5.13-4.99,10.61-6.54,15.03-1.06,2.98-2.01,5.99-2.82,9l-.56-.12c-.44,1.92-.92,3.84-1.41,5.76-.58,2.29-1.18,4.6-1.85,6.84-2.4,8.42-3.56,12.28-5.48,15.86-2.22,4.19-5.34,7.95-9.2,11.28-.67.6-1.39,1.18-2.13,1.73l.3.39s-.07.02-.14.07c-.97.25-1.97.53-2.98.72-.37-4.88-1.13-9.76-2.22-14.54-.55-3.49-1.29-6.84-2.59-10.75-.3-.86-.6-1.69-.95-2.5h.02c2.38-5.78,5.13-11.42,8.19-16.88,1.48-2.68,3.08-5.36,4.79-7.98l.07.51,1.9-2.52c6.43-8.58,14.43-15.33,23.75-20.03,3.19-1.62,6.57-2.98,10.01-4.07Z"/>
        </g>
        <g>
          <path class="cls-6" d="m67.45,137.36c-.28-.51-.58-.99-.86-1.5,0,0,0-.02-.02-.02-2.22-4.02-4.09-7.65-5.55-10.89-1.43-3.08-3.05-6.61-4.74-11.49-1.27-3.63-1.53-4.99-3.24-9.97-.55-1.73-1.13-3.26-1.64-4.6-.23-.62-.42-1.16-.58-1.66h.05l.69,1.73,6.34,15.35,3.65,8.79s.07.14.09.21l5.23,12.7.58,1.36Z"/>
          <path class="cls-6" d="m68.56,136.69v.02l-1.11.65-.25.14-.86.49c-.23-.37-.44-.76-.67-1.18-.37-.65-.76-1.36-1.18-2.06-1.64-3.03-3.19-6.15-4.62-9.25-1.36-2.96-3.08-6.64-4.79-11.63-.6-1.71-.97-2.96-1.39-4.3-.44-1.46-.93-3.08-1.85-5.67-.76-2.24-1.46-4.21-2.01-5.73-.25-.65-.46-1.18-.65-1.64l.07-.05,1.11-.44h.07l1.11-.44c.39,1.02.9,2.38,1.5,4.02.39,1.04.81,2.2,1.2,3.45.92,2.64,1.41,4.28,1.87,5.76.39,1.32.76,2.52,1.34,4.21.16.44.32.86.44,1.27,1.3,3.54,2.57,6.41,3.65,8.79.02.05.07.14.09.21.16.39.35.76.51,1.11,1.94,4.16,4.09,8.28,6.41,12.28Z"/>
        </g>
      </g>
      <text class="cls-8" transform="translate(180.52 90.68)"><tspan x="0" y="0">Bloom</tspan><tspan class="cls-2" x="159.03" y="0">f</tspan><tspan x="176.23" y="0">o</tspan><tspan class="cls-3" x="209.03" y="0">r</tspan><tspan x="229.51" y="0">ge</tspan></text>
      <text class="cls-7" transform="translate(178.11 135.28)"><tspan class="cls-5" x="0" y="0">V</tspan><tspan class="cls-10" x="42.42" y="0">entu</tspan><tspan class="cls-9" x="197.74" y="0">r</tspan><tspan class="cls-10" x="233.71" y="0">es</tspan></text>
    </g>
  </g>
</svg>