<?xml version="1.0" encoding="UTF-8"?>
<svg id="Layer_2" data-name="Layer 2" xmlns="http://www.w3.org/2000/svg" viewBox="0 0 508.22 160.03">
  <defs>
    <style>
      .cls-1 {
        font-size: 63.18px;
        stroke-width: 2.24px;
      }

      .cls-1, .cls-2, .cls-3 {
        fill: #fffd74;
      }

      .cls-1, .cls-3 {
        font-family: Maginia-Regular, Maginia;
        stroke: #fffd74;
        stroke-miterlimit: 10;
      }

      .cls-4 {
        letter-spacing: .85em;
      }

      .cls-5 {
        letter-spacing: .8em;
      }

      .cls-6 {
        letter-spacing: -.01em;
      }

      .cls-7 {
        letter-spacing: .84em;
      }

      .cls-8 {
        letter-spacing: 0em;
      }

      .cls-3 {
        font-size: 32.64px;
        stroke-width: 1.11px;
      }

      .cls-9 {
        fill: none;
      }

      .cls-10 {
        letter-spacing: -.01em;
      }
    </style>
  </defs>
  <g id="Layer_1-2" data-name="Layer 1">
    <g>
      <text class="cls-1" transform="translate(168.96 81.1)"><tspan x="0" y="0">Bloom</tspan><tspan class="cls-6" x="174.62" y="0">f</tspan><tspan class="cls-8" x="193.5" y="0">o</tspan><tspan class="cls-10" x="229.52" y="0">r</tspan><tspan x="252.01" y="0">ge</tspan></text>
      <text class="cls-3" transform="translate(166.31 130.07)"><tspan class="cls-5" x="0" y="0">V</tspan><tspan class="cls-4" x="46.58" y="0">entu</tspan><tspan class="cls-7" x="217.12" y="0">r</tspan><tspan class="cls-4" x="256.62" y="0">es</tspan></text>
      <g>
        <path class="cls-2" d="m77.62,0C34.74,0,0,34.76,0,77.6s34.74,77.65,77.62,77.65,77.65-34.76,77.65-77.65S120.51,0,77.62,0Zm-30.69,92.46c.52,1.44,1.18,3.29,1.89,5.4.87,2.44,1.33,3.96,1.74,5.34.39,1.26.74,2.44,1.31,4.05,1.61,4.7,3.22,8.17,4.51,10.96,1.35,2.92,2.81,5.86,4.36,8.71-.04-.02-.11-.07-.13-.09-3.53-2.07-5.79-4.66-7.45-6.58-.5-.57-.98-1.07-1.37-1.48-4.77-4.88-8.43-8.84-10.85-11.48l-.44-.44c-2.98-3.27-4.9-5.38-6.32-6.97-2.29-2.59-3.25-3.66-5.4-5.55-2.92-2.57-7.34-6.03-11.76-7.99-1.11-.48-2.16-.87-3.14-1.2,3.16.07,7.14.3,11.41.91,7.43,1.11,14.72,3.27,21.63,6.4Zm17.64,36.29c-2.18-3.77-4.2-7.64-6.03-11.57-.15-.33-.33-.68-.48-1.05-.02-.07-.07-.15-.09-.2l-3.44-8.28c-.11-.39-.26-.78-.41-1.2-.54-1.59-.89-2.72-1.26-3.96-.44-1.39-.89-2.94-1.76-5.42-.37-1.18-.76-2.27-1.13-3.25l.07.02-.98-2.68c-1.5-4.01-3.05-8.04-4.64-11.98-3.31-8.1-5.1-12.55-7.6-16.31-2.81-4.2-5.88-7.03-8.25-8.95,4.16,1.7,10.82,5.07,17.69,10.13,8.34,6.05,14.24,12.57,18.1,17.53l-.02.04.41.63c1.92,3.18,3.7,6.25,5.47,9.41,2.53,4.57,4.27,7.69,5.51,10.45,1.85,4.81,2.88,8.82,3.53,11.39.22.81.39,1.61.57,2.42.22,1.33.41,2.68.63,4.12.5,3.4.83,6.86,1.02,10.3-2.48.48-4.99.63-7.54.44-3.81-.24-6.99-1.13-9.34-2.03v-.02Zm12.72-71.94c1.29-7.75,1.02-16.34.87-21.52-.07-1.66-.15-3.38-.24-5.07,3.64,5.99,6.38,12.15,8.15,18.47,1.35,4.77,2.46,10.35,3.07,15.33l1.52,12.2v.02c-2.18,3.29-4.23,6.66-6.14,10.11-2.55,4.53-4.88,9.28-6.93,14.07-1.76-4.51-4.23-9.69-7.69-15.07-.68-1.07-1.55-2.35-2.61-3.81,5.25-7.95,8.6-16.25,10-24.72Zm13.9,23.65l1.79-2.37c6.05-8.08,13.59-14.44,22.37-18.86,3.01-1.52,6.19-2.81,9.43-3.83-3.88,3.42-7.08,7.25-9.56,11.48-2.85,4.84-4.7,10-6.16,14.16-1,2.81-1.89,5.64-2.66,8.47l-.52-.11c-.41,1.81-.87,3.62-1.33,5.42-.54,2.16-1.11,4.33-1.74,6.45-2.27,7.93-3.35,11.57-5.16,14.94-2.09,3.94-5.03,7.49-8.67,10.63-.63.57-1.31,1.11-2,1.63l.28.37s-.07.02-.13.07c-.91.24-1.85.5-2.81.68-.35-4.6-1.07-9.19-2.09-13.7-.52-3.29-1.22-6.45-2.44-10.13-.28-.81-.57-1.59-.89-2.35h.02c2.24-5.45,4.84-10.76,7.71-15.9,1.39-2.53,2.9-5.05,4.51-7.51l.07.48Zm1.72,45.98c2.79-2.74,5.05-5.82,6.84-9.1,2-3.72,3.2-7.88,5.36-15.4.94-3.35,1.85-6.75,2.66-10.11,6.56-2.35,13.44-4.05,20.32-5.05,3.05-.41,6.1-.68,9.17-.83-3.55,1.61-6.05,3.77-9.41,6.77-5.66,5.12-8.49,7.71-12.83,12.37-4.23,4.53-6.03,6.86-7.34,8.56-1.39,1.76-2.31,2.94-4.9,5.36-3.57,3.31-6.73,5.71-9.87,7.43Z"/>
        <g>
          <path class="cls-2" d="m127.76,84.42c-6.32.89-12.63,2.35-18.71,4.44.65-2.37,1.39-4.7,2.22-7.03,1.44-4.07,3.25-9.13,6.01-13.77,3.22-5.45,7.73-10.28,13.37-14.31l4.73-3.38-5.68,1.22c-5.36,1.2-10.56,3.03-15.42,5.47-8.28,4.18-15.49,9.98-21.45,17.29l-1.31-10.63c-.63-5.12-1.76-10.82-3.14-15.68-2.22-7.95-5.92-15.7-11.02-23.07l-2.61-3.72.44,4.51c.28,3.2.5,6.43.59,9.61.15,5.05.41,13.55-.83,21.04-1.29,7.88-4.4,15.64-9.23,23.09-.22.35-.41.72-.7,1.05-.04.15-.17.28-.26.44l-.41.61-.02.04.41.63c1.92,3.18,3.7,6.25,5.47,9.41,2.53,4.57,4.27,7.69,5.51,10.45.72,1.5,1.29,2.9,1.81,4.4,1.13,3.38,1.79,6.36,2.29,9.41.22,1.33.41,2.68.63,4.12.5,3.4.83,6.86,1.02,10.3.02.26.04.54.04.81l.04.41.02.89,1.31-.2c.54-.09,1.09-.2,1.61-.3,1.15-.22,2.24-.48,3.33-.81,5.58-1.7,10.54-4.81,16.6-10.43,2.74-2.53,3.72-3.81,5.14-5.6,1.29-1.68,3.07-3.99,7.23-8.43,4.23-4.57,7.08-7.14,12.68-12.22,3.51-3.16,5.92-5.21,9.56-6.69,2.5-1.05,5.21-1.63,7.97-1.83v-2.37c-6.4-.33-12.87-.07-19.23.83Zm-20.08,29.23c-1.39,1.76-2.31,2.94-4.9,5.36-3.57,3.31-6.73,5.71-9.87,7.43-.02.04-.02.07-.07.04-1.15.65-2.33,1.18-3.51,1.63-.39.17-.78.3-1.18.41h-.02c-.3.13-.57.22-.87.3h-.02s-.07.02-.13.07c-.91.24-1.85.5-2.81.68-.15.07-.33.09-.5.13-.17-3.35-.5-6.69-1.02-10.02-.17-1.31-.39-2.57-.57-3.81-.52-3.29-1.22-6.45-2.44-10.13-.28-.81-.57-1.59-.89-2.35v-.04c-.2-.44-.37-.89-.61-1.33v-.04s0-.04-.02-.09l-.02-.02c-.13-.33-.28-.65-.46-1.02v-.02c-.07-.13-.15-.24-.22-.37v-.02c-1.24-2.68-2.92-5.68-5.27-9.91-1.66-2.98-3.35-5.88-5.12-8.82.04-.07.09-.11.13-.17,5.25-7.95,8.6-16.25,10-24.72,1.29-7.75,1.02-16.34.87-21.52-.07-1.66-.15-3.38-.24-5.07,3.64,5.99,6.38,12.15,8.15,18.47,1.35,4.77,2.46,10.35,3.07,15.33l1.52,12.2v.02l.22,1.83v.02l.02.28v.02l.22,1.59.07.48,1.79-2.37c6.05-8.08,13.59-14.44,22.37-18.86,3.01-1.52,6.19-2.81,9.43-3.83-3.88,3.42-7.08,7.25-9.56,11.48-2.85,4.84-4.7,10-6.16,14.16-1,2.81-1.89,5.64-2.66,8.47-.11.3-.15.63-.24.94l-.61,2.2.07-.02.81-.28,1.29-.48s.02,0,.07-.02c6.56-2.35,13.44-4.05,20.32-5.05,3.05-.41,6.1-.68,9.17-.83-3.55,1.61-6.05,3.77-9.41,6.77-5.66,5.12-8.49,7.71-12.83,12.37-4.23,4.53-6.03,6.86-7.34,8.56Z"/>
          <path class="cls-9" d="m124.78,55.39c-3.88,3.42-7.08,7.25-9.56,11.48-2.85,4.84-4.7,10-6.16,14.16-1,2.81-1.89,5.64-2.66,8.47l-.52-.11c-.41,1.81-.87,3.62-1.33,5.42-.54,2.16-1.11,4.33-1.74,6.45-2.27,7.93-3.35,11.57-5.16,14.94-2.09,3.94-5.03,7.49-8.67,10.63-.63.57-1.31,1.11-2,1.63l.28.37s-.07.02-.13.07c-.91.24-1.85.5-2.81.68-.35-4.6-1.07-9.19-2.09-13.7-.52-3.29-1.22-6.45-2.44-10.13-.28-.81-.57-1.59-.89-2.35h.02c2.24-5.45,4.84-10.76,7.71-15.9,1.39-2.53,2.9-5.05,4.51-7.51l.07.48,1.79-2.37c6.05-8.08,13.59-14.44,22.37-18.86,3.01-1.52,6.19-2.81,9.43-3.83Z"/>
        </g>
        <g>
          <path class="cls-2" d="m63.53,129.37c-.26-.48-.54-.94-.81-1.42,0,0,0-.02-.02-.02-2.09-3.79-3.86-7.21-5.23-10.26-1.35-2.9-2.88-6.23-4.46-10.82-1.2-3.42-1.44-4.7-3.05-9.39-.52-1.63-1.07-3.07-1.55-4.33-.22-.59-.39-1.09-.54-1.57h.04l.65,1.63,5.97,14.46,3.44,8.28s.07.13.09.2l4.92,11.96.54,1.28Z"/>
          <path class="cls-2" d="m64.58,128.74v.02l-1.05.61-.24.13-.81.46c-.22-.35-.41-.72-.63-1.11-.35-.61-.72-1.28-1.11-1.94-1.55-2.85-3.01-5.79-4.36-8.71-1.29-2.79-2.9-6.25-4.51-10.96-.57-1.61-.91-2.79-1.31-4.05-.41-1.37-.87-2.9-1.74-5.34-.72-2.11-1.37-3.96-1.89-5.4-.24-.61-.44-1.11-.61-1.55l.07-.04,1.05-.41h.07l1.05-.41c.37.96.85,2.24,1.42,3.79.37.98.76,2.07,1.13,3.25.87,2.48,1.33,4.03,1.76,5.42.37,1.24.72,2.37,1.26,3.96.15.41.3.81.41,1.2,1.22,3.33,2.42,6.03,3.44,8.28.02.04.07.13.09.2.15.37.33.72.48,1.05,1.83,3.92,3.86,7.8,6.03,11.57Z"/>
        </g>
      </g>
    </g>
  </g>
</svg>